<svg xmlns="http://www.w3.org/2000/svg" width="830" height="830" viewBox="0 0 830 830"><g transform="translate(-143 -83)"><g transform="translate(-86 -18.044)"><g transform="translate(244 182)" fill="#fff5b3" stroke="rgba(255,255,255,0.5)" stroke-width="1"><rect width="732" height="732" stroke="none"/><rect x="0.5" y="0.5" width="731" height="731" fill="none"/></g><g transform="translate(976 182)" fill="#fff5b3"><path d="M0,0,69-61.956h0V597.7h0L0,732Z" stroke="none"/><path d="M 68 -59.71429443359375 L 1 0.44610595703125 L 1 727.865234375 L 68 597.4547119140625 L 68 -59.71429443359375 M 69 -61.9561767578125 L 69 597.6965942382812 L 0 732 L 0 0 L 69 -61.9561767578125 Z" stroke="none" fill="rgba(255,255,255,0.5)"/></g><g transform="translate(244 -550)" fill="#fff5b3"><path d="M220.991,673.183H800.956L732,732H0Z" stroke="none"/><path d="M 221.1215209960938 674.1826782226562 L 7.6453857421875 731 L 731.6314086914062 731 L 798.24267578125 674.1826782226562 L 221.1215209960938 674.1826782226562 M 220.9905395507812 673.1826782226562 L 800.9559936523438 673.1826782226562 L 732 732 L -6.103515625e-05 732 L 220.9905395507812 673.1826782226562 Z" stroke="none" fill="rgba(255,255,255,0.5)"/></g><path d="M128.5,0C199.469,0,257,5.6,257,12.5S199.469,25,128.5,25,0,19.4,0,12.5,57.531,0,128.5,0Z" transform="translate(530 141)" fill="rgba(183,183,183,0.3)"/><path d="M66.621,0H7.793V-84.023H24.609v67.207H66.621ZM148.8-41.66a42.441,42.441,0,0,1-1.553,11.514,44.328,44.328,0,0,1-4.365,10.371,43.019,43.019,0,0,1-6.8,8.818A44.231,44.231,0,0,1,127.3-4.131,42.926,42.926,0,0,1,116.93.264a42.759,42.759,0,0,1-11.543,1.553A42.441,42.441,0,0,1,93.873.264,43.593,43.593,0,0,1,83.5-4.131a43.857,43.857,0,0,1-8.818-6.826,43.857,43.857,0,0,1-6.826-8.818,43.593,43.593,0,0,1-4.395-10.371A42.441,42.441,0,0,1,61.91-41.66,42.759,42.759,0,0,1,63.463-53.2a42.926,42.926,0,0,1,4.395-10.371,44.231,44.231,0,0,1,6.826-8.789,43.019,43.019,0,0,1,8.818-6.8,44.328,44.328,0,0,1,10.371-4.365,42.441,42.441,0,0,1,11.514-1.553,42.759,42.759,0,0,1,11.543,1.553A43.64,43.64,0,0,1,127.3-79.16a43.376,43.376,0,0,1,8.789,6.8,43.376,43.376,0,0,1,6.8,8.789A43.64,43.64,0,0,1,147.252-53.2,42.759,42.759,0,0,1,148.8-41.66Zm-16.7,0A25.989,25.989,0,0,0,130-52.061a26.992,26.992,0,0,0-5.713-8.5,26.992,26.992,0,0,0-8.5-5.713,25.989,25.989,0,0,0-10.4-2.109,25.925,25.925,0,0,0-10.43,2.109,27.444,27.444,0,0,0-8.5,5.713,26.746,26.746,0,0,0-5.742,8.5,25.989,25.989,0,0,0-2.109,10.4,25.574,25.574,0,0,0,2.109,10.342,27.284,27.284,0,0,0,5.742,8.467,27.189,27.189,0,0,0,8.5,5.742A25.925,25.925,0,0,0,105.387-15a25.989,25.989,0,0,0,10.4-2.109,26.746,26.746,0,0,0,8.5-5.742A27.541,27.541,0,0,0,130-31.318,25.574,25.574,0,0,0,132.105-41.66ZM186.457,0H169.7V-67.207H144.445V-84.023h67.207v16.816h-25.2Zm63.375,0H233.074V-67.207H207.82V-84.023h67.207v16.816h-25.2Zm85.7,0h-57.6V-84.023h57.6v16.816H294.75v16.816h27.6v16.816h-27.6v16.758h40.781Zm22.594-67.207v33.633h16.816a16.2,16.2,0,0,0,6.5-1.318,17.022,17.022,0,0,0,5.332-3.6,16.931,16.931,0,0,0,3.6-5.361,16.41,16.41,0,0,0,1.318-6.533,16.41,16.41,0,0,0-1.318-6.533,16.931,16.931,0,0,0-3.6-5.361,17.022,17.022,0,0,0-5.332-3.6,16.2,16.2,0,0,0-6.5-1.318Zm0,67.207H341.309V-84.023h33.633a32.786,32.786,0,0,1,8.906,1.2,33.424,33.424,0,0,1,8,3.4,34.1,34.1,0,0,1,6.8,5.273,33.731,33.731,0,0,1,5.273,6.826,33.976,33.976,0,0,1,3.4,8.027,32.786,32.786,0,0,1,1.2,8.906,32.882,32.882,0,0,1-1.084,8.438,34.533,34.533,0,0,1-3.105,7.793,32.9,32.9,0,0,1-4.951,6.8,33.521,33.521,0,0,1-6.562,5.391L402.129,0H384.258l-7.324-16.934-18.809.117Zm93.2,0H434.566V-26.309a32.743,32.743,0,0,1-10.225-4.512,33.675,33.675,0,0,1-8-7.412,33.765,33.765,0,0,1-5.186-9.551,33.024,33.024,0,0,1-1.846-11.045v-25.2h16.816v25.2a16.41,16.41,0,0,0,1.318,6.533,16.931,16.931,0,0,0,3.6,5.361,16.931,16.931,0,0,0,5.361,3.6,16.41,16.41,0,0,0,6.533,1.318,16.41,16.41,0,0,0,6.533-1.318,16.931,16.931,0,0,0,5.361-3.6,16.931,16.931,0,0,0,3.6-5.361,16.41,16.41,0,0,0,1.318-6.533v-25.2H476.52v25.2a33.024,33.024,0,0,1-1.846,11.045,33.765,33.765,0,0,1-5.186,9.551,33.915,33.915,0,0,1-7.969,7.412,32.388,32.388,0,0,1-10.2,4.512Z" transform="translate(372 598)" fill="#93e01f"/><path d="M66.621,0H7.793V-84.023H24.609v67.207H66.621ZM148.8-41.66a42.441,42.441,0,0,1-1.553,11.514,44.328,44.328,0,0,1-4.365,10.371,43.019,43.019,0,0,1-6.8,8.818A44.231,44.231,0,0,1,127.3-4.131,42.926,42.926,0,0,1,116.93.264a42.759,42.759,0,0,1-11.543,1.553A42.441,42.441,0,0,1,93.873.264,43.593,43.593,0,0,1,83.5-4.131a43.857,43.857,0,0,1-8.818-6.826,43.857,43.857,0,0,1-6.826-8.818,43.593,43.593,0,0,1-4.395-10.371A42.441,42.441,0,0,1,61.91-41.66,42.759,42.759,0,0,1,63.463-53.2a42.926,42.926,0,0,1,4.395-10.371,44.231,44.231,0,0,1,6.826-8.789,43.019,43.019,0,0,1,8.818-6.8,44.328,44.328,0,0,1,10.371-4.365,42.441,42.441,0,0,1,11.514-1.553,42.759,42.759,0,0,1,11.543,1.553A43.64,43.64,0,0,1,127.3-79.16a43.376,43.376,0,0,1,8.789,6.8,43.376,43.376,0,0,1,6.8,8.789A43.64,43.64,0,0,1,147.252-53.2,42.759,42.759,0,0,1,148.8-41.66Zm-16.7,0A25.989,25.989,0,0,0,130-52.061a26.992,26.992,0,0,0-5.713-8.5,26.992,26.992,0,0,0-8.5-5.713,25.989,25.989,0,0,0-10.4-2.109,25.925,25.925,0,0,0-10.43,2.109,27.444,27.444,0,0,0-8.5,5.713,26.746,26.746,0,0,0-5.742,8.5,25.989,25.989,0,0,0-2.109,10.4,25.574,25.574,0,0,0,2.109,10.342,27.284,27.284,0,0,0,5.742,8.467,27.189,27.189,0,0,0,8.5,5.742A25.925,25.925,0,0,0,105.387-15a25.989,25.989,0,0,0,10.4-2.109,26.746,26.746,0,0,0,8.5-5.742A27.541,27.541,0,0,0,130-31.318,25.574,25.574,0,0,0,132.105-41.66ZM186.457,0H169.7V-67.207H144.445V-84.023h67.207v16.816h-25.2Zm63.375,0H233.074V-67.207H207.82V-84.023h67.207v16.816h-25.2Zm85.7,0h-57.6V-84.023h57.6v16.816H294.75v16.816h27.6v16.816h-27.6v16.758h40.781Zm22.594-67.207v33.633h16.816a16.2,16.2,0,0,0,6.5-1.318,17.022,17.022,0,0,0,5.332-3.6,16.931,16.931,0,0,0,3.6-5.361,16.41,16.41,0,0,0,1.318-6.533,16.41,16.41,0,0,0-1.318-6.533,16.931,16.931,0,0,0-3.6-5.361,17.022,17.022,0,0,0-5.332-3.6,16.2,16.2,0,0,0-6.5-1.318Zm0,67.207H341.309V-84.023h33.633a32.786,32.786,0,0,1,8.906,1.2,33.424,33.424,0,0,1,8,3.4,34.1,34.1,0,0,1,6.8,5.273,33.731,33.731,0,0,1,5.273,6.826,33.976,33.976,0,0,1,3.4,8.027,32.786,32.786,0,0,1,1.2,8.906,32.882,32.882,0,0,1-1.084,8.438,34.533,34.533,0,0,1-3.105,7.793,32.9,32.9,0,0,1-4.951,6.8,33.521,33.521,0,0,1-6.562,5.391L402.129,0H384.258l-7.324-16.934-18.809.117Zm93.2,0H434.566V-26.309a32.743,32.743,0,0,1-10.225-4.512,33.675,33.675,0,0,1-8-7.412,33.765,33.765,0,0,1-5.186-9.551,33.024,33.024,0,0,1-1.846-11.045v-25.2h16.816v25.2a16.41,16.41,0,0,0,1.318,6.533,16.931,16.931,0,0,0,3.6,5.361,16.931,16.931,0,0,0,5.361,3.6,16.41,16.41,0,0,0,6.533,1.318,16.41,16.41,0,0,0,6.533-1.318,16.931,16.931,0,0,0,5.361-3.6,16.931,16.931,0,0,0,3.6-5.361,16.41,16.41,0,0,0,1.318-6.533v-25.2H476.52v25.2a33.024,33.024,0,0,1-1.846,11.045,33.765,33.765,0,0,1-5.186,9.551,33.915,33.915,0,0,1-7.969,7.412,32.388,32.388,0,0,1-10.2,4.512Z" transform="translate(370 596)" fill="#ffde05"/><path d="M66.621,0H7.793V-84.023H24.609v67.207H66.621ZM148.8-41.66a42.441,42.441,0,0,1-1.553,11.514,44.328,44.328,0,0,1-4.365,10.371,43.019,43.019,0,0,1-6.8,8.818A44.231,44.231,0,0,1,127.3-4.131,42.926,42.926,0,0,1,116.93.264a42.759,42.759,0,0,1-11.543,1.553A42.441,42.441,0,0,1,93.873.264,43.593,43.593,0,0,1,83.5-4.131a43.857,43.857,0,0,1-8.818-6.826,43.857,43.857,0,0,1-6.826-8.818,43.593,43.593,0,0,1-4.395-10.371A42.441,42.441,0,0,1,61.91-41.66,42.759,42.759,0,0,1,63.463-53.2a42.926,42.926,0,0,1,4.395-10.371,44.231,44.231,0,0,1,6.826-8.789,43.019,43.019,0,0,1,8.818-6.8,44.328,44.328,0,0,1,10.371-4.365,42.441,42.441,0,0,1,11.514-1.553,42.759,42.759,0,0,1,11.543,1.553A43.64,43.64,0,0,1,127.3-79.16a43.376,43.376,0,0,1,8.789,6.8,43.376,43.376,0,0,1,6.8,8.789A43.64,43.64,0,0,1,147.252-53.2,42.759,42.759,0,0,1,148.8-41.66Zm-16.7,0A25.989,25.989,0,0,0,130-52.061a26.992,26.992,0,0,0-5.713-8.5,26.992,26.992,0,0,0-8.5-5.713,25.989,25.989,0,0,0-10.4-2.109,25.925,25.925,0,0,0-10.43,2.109,27.444,27.444,0,0,0-8.5,5.713,26.746,26.746,0,0,0-5.742,8.5,25.989,25.989,0,0,0-2.109,10.4,25.574,25.574,0,0,0,2.109,10.342,27.284,27.284,0,0,0,5.742,8.467,27.189,27.189,0,0,0,8.5,5.742A25.925,25.925,0,0,0,105.387-15a25.989,25.989,0,0,0,10.4-2.109,26.746,26.746,0,0,0,8.5-5.742A27.541,27.541,0,0,0,130-31.318,25.574,25.574,0,0,0,132.105-41.66ZM186.457,0H169.7V-67.207H144.445V-84.023h67.207v16.816h-25.2Zm63.375,0H233.074V-67.207H207.82V-84.023h67.207v16.816h-25.2Zm85.7,0h-57.6V-84.023h57.6v16.816H294.75v16.816h27.6v16.816h-27.6v16.758h40.781Zm22.594-67.207v33.633h16.816a16.2,16.2,0,0,0,6.5-1.318,17.022,17.022,0,0,0,5.332-3.6,16.931,16.931,0,0,0,3.6-5.361,16.41,16.41,0,0,0,1.318-6.533,16.41,16.41,0,0,0-1.318-6.533,16.931,16.931,0,0,0-3.6-5.361,17.022,17.022,0,0,0-5.332-3.6,16.2,16.2,0,0,0-6.5-1.318Zm0,67.207H341.309V-84.023h33.633a32.786,32.786,0,0,1,8.906,1.2,33.424,33.424,0,0,1,8,3.4,34.1,34.1,0,0,1,6.8,5.273,33.731,33.731,0,0,1,5.273,6.826,33.976,33.976,0,0,1,3.4,8.027,32.786,32.786,0,0,1,1.2,8.906,32.882,32.882,0,0,1-1.084,8.438,34.533,34.533,0,0,1-3.105,7.793,32.9,32.9,0,0,1-4.951,6.8,33.521,33.521,0,0,1-6.562,5.391L402.129,0H384.258l-7.324-16.934-18.809.117Zm93.2,0H434.566V-26.309a32.743,32.743,0,0,1-10.225-4.512,33.675,33.675,0,0,1-8-7.412,33.765,33.765,0,0,1-5.186-9.551,33.024,33.024,0,0,1-1.846-11.045v-25.2h16.816v25.2a16.41,16.41,0,0,0,1.318,6.533,16.931,16.931,0,0,0,3.6,5.361,16.931,16.931,0,0,0,5.361,3.6,16.41,16.41,0,0,0,6.533,1.318,16.41,16.41,0,0,0,6.533-1.318,16.931,16.931,0,0,0,5.361-3.6,16.931,16.931,0,0,0,3.6-5.361,16.41,16.41,0,0,0,1.318-6.533v-25.2H476.52v25.2a33.024,33.024,0,0,1-1.846,11.045,33.765,33.765,0,0,1-5.186,9.551,33.915,33.915,0,0,1-7.969,7.412,32.388,32.388,0,0,1-10.2,4.512Z" transform="translate(367 592)" fill="#333"/></g><rect width="830" height="830" transform="translate(143 83)" fill="none"/></g></svg>